<?xml version="1.0" encoding="utf-8"?>
<!-- Generator: Adobe Illustrator 27.2.0, SVG Export Plug-In . SVG Version: 6.00 Build 0)  -->
<svg version="1.1" id="cart" xmlns="http://www.w3.org/2000/svg" xmlns:xlink="http://www.w3.org/1999/xlink" x="0px" y="0px"
	 viewBox="0 0 720 288" style="enable-background:new 0 0 720 288;" xml:space="preserve">
<style type="text/css">
	.st0{stroke:#000000;stroke-width:2;stroke-miterlimit:10;}
</style>
<path id="basket" d="M513.8,168.4c-19.8-0.4-39.7-0.8-59.5-1.2c-7-16.7-13.9-33.4-20.9-50.1c33.1,0,66.2,0,99.3,0
	C526.5,134.2,520.1,151.3,513.8,168.4z"/>
<path id="handle" d="M406.8,94.7v7.8h15.5c9.4,27.2,18.7,54.4,28.1,81.6c18.2,0.4,36.4,0.8,54.7,1.2c0.1-2.7,0.2-5.4,0.3-8.1
	c-15.4-0.1-30.9-0.2-46.3-0.3c-1.6-3.2-3.2-6.5-4.8-9.7l-26.6-72.4H406.8z"/>
<path id="wheels" d="M469.3,186.9c0,5.5-4.5,10-10,10s-10-4.5-10-10s4.5-10,10-10S469.3,181.4,469.3,186.9z M501.9,176.1
	c-5.6,0-10.2,4.2-10.2,9.3s4.5,9.3,10.2,9.3s10.2-4.2,10.2-9.3S507.5,176.1,501.9,176.1z"/>
<path id="grid" class="st0" d="M437.3,118.2l18.8,49 M499.4,119l16.6,43.3 M505.4,168.5L485.6,117 M473.7,118.1l18.8,49 M478.7,166
	l-18.8-49 M510.4,116.9l11.7,28.6 M446.7,117l18.8,49 M522.2,143.1l-75.9-1.9 M451.3,157.4l65.8,1.2 M529,130.7l-86.9-1.1"/>
</svg>
