<?xml version="1.0" encoding="utf-8"?>
<!-- Generator: Adobe Illustrator 27.2.0, SVG Export Plug-In . SVG Version: 6.00 Build 0)  -->
<svg version="1.1" id="cart" xmlns="http://www.w3.org/2000/svg" xmlns:xlink="http://www.w3.org/1999/xlink" x="0px" y="0px"
	 viewBox="0 0 125.9 102.2" style="enable-background:new 0 0 125.9 102.2;" xml:space="preserve">
<style type="text/css">
	.st0{stroke:#000000;stroke-width:2;stroke-miterlimit:10;}
</style>
<path id="basket" d="M107,73.7c-19.8-0.4-39.7-0.8-59.5-1.2c-7-16.7-13.9-33.4-20.9-50.1c33.1,0,66.2,0,99.3,0
	C119.7,39.5,113.3,56.6,107,73.7z"/>
<path id="handle" d="M0,0v7.8h15.5C24.9,35,34.2,62.2,43.6,89.4c18.2,0.4,36.4,0.8,54.7,1.2c0.1-2.7,0.2-5.4,0.3-8.1
	c-15.4-0.1-30.9-0.2-46.3-0.3c-1.6-3.2-3.2-6.5-4.8-9.7L20.9,0.1L0,0L0,0z"/>
<path id="wheels" d="M62.5,92.2c0,5.5-4.5,10-10,10s-10-4.5-10-10s4.5-10,10-10S62.5,86.7,62.5,92.2z M95.1,81.4
	c-5.6,0-10.2,4.2-10.2,9.3s4.5,9.3,10.2,9.3s10.2-4.2,10.2-9.3S100.7,81.4,95.1,81.4z"/>
<path id="grid" class="st0" d="M30.5,23.5l18.8,49 M92.6,24.3l16.6,43.3 M98.6,73.8L78.8,22.3 M66.9,23.4l18.8,49 M71.9,71.3
	l-18.8-49 M103.6,22.2l11.7,28.6 M39.9,22.3l18.8,49 M115.4,48.4l-75.9-1.9 M44.5,62.7l65.8,1.2 M122.2,36l-86.9-1.1"/>
</svg>
