<?xml version="1.0" encoding="utf-8"?>
<!-- Generator: Adobe Illustrator 27.2.0, SVG Export Plug-In . SVG Version: 6.00 Build 0)  -->
<svg version="1.1" id="Layer_1" xmlns="http://www.w3.org/2000/svg" xmlns:xlink="http://www.w3.org/1999/xlink" x="0px" y="0px"
	 viewBox="0 0 265.3 236" style="enable-background:new 0 0 265.3 236;" xml:space="preserve">
<style type="text/css">
	.st0{fill:#E767A7;}
	.st1{fill:#EA98BD;}
	.st2{fill:none;}
	.st3{font-family:'ArialMT';}
	.st4{font-size:35px;}
</style>
<path class="st0" d="M46.3,83C39.5,35.6,60.5,2.3,80.7,0.2c17.8-1.8,41.4,19.6,55.1,50.5c14.4-31.2,39.6-52.6,58.5-50.5
	c21.9,2.4,44.7,37.3,36.2,86.3c-4.3,16.7-77.8,91.7-94.7,97.6C111.9,169.3,46,98.2,46.3,83z"/>
<path class="st1" d="M56,83.9C49.9,41.5,68.7,11.7,86.8,9.8c15.9-1.7,37.1,17.6,49.3,45.2C149,27.1,171.6,7.9,188.5,9.7
	c19.6,2.1,40,33.4,32.4,77.3c-3.8,14.9-69.6,82.1-84.7,87.4C114.7,161.3,55.7,97.6,56,83.9z"/>
<rect x="0.1" y="199.6" class="st2" width="265.3" height="31.1"/>
<text transform="matrix(1 0 0 1 5.313110e-02 224.6292)" class="st3 st4">Add to favourites</text>
</svg>
