<?xml version="1.0" encoding="utf-8"?>
<!-- Generator: Adobe Illustrator 27.2.0, SVG Export Plug-In . SVG Version: 6.00 Build 0)  -->
<svg version="1.1" id="grapefruit" xmlns="http://www.w3.org/2000/svg" xmlns:xlink="http://www.w3.org/1999/xlink" x="0px" y="0px"
	 viewBox="0 0 353.2 399.8" style="enable-background:new 0 0 353.2 399.8;" xml:space="preserve">
<style type="text/css">
	.st0{fill:#F4C4B8;stroke:#771521;stroke-width:5;stroke-miterlimit:10;}
	.st1{fill:#EE7780;stroke:#771521;stroke-width:5;stroke-miterlimit:10;}
	.st2{fill:#F15A29;stroke:#771521;stroke-width:5;stroke-miterlimit:10;}
	.st3{fill:#F4899B;stroke:#EE7780;stroke-miterlimit:10;}
	.st4{fill:#B54326;}
</style>
<path id="rind_00000160158665487179808570000001998746016662261681_" class="st0" d="M306.2,196.3c-9.6,65-52.9,183.2-144.7,192.4
	c-52.3,5.2-101.3-26.9-128.3-62.8c-48.4-64.4-27-141.8-20-167.1C29.7,99.6,78.9,15.4,161.6,3.9c11.9-1.7,64-7.3,104.4,26.9
	C323.4,79.4,310.3,168.4,306.2,196.3z"/>
<path id="pulp" class="st1" d="M216.9,41.2c-23.1,40.4-46.1,80.7-69.2,121.1c-2.7-40.9-5.5-81.8-8.2-122.7
	C164.8,27.8,190.6,28.3,216.9,41.2z M269.5,133.5C269.4,99,255.1,70.1,230.3,46l-73.9,126.1L269.5,133.5z M248.6,252.8
	c7.1-12.7,16.2-32.2,20.7-57.6c3.7-20.8,3.2-38.8,1.8-51.8l-111.6,39.9C189.2,206.5,218.9,229.6,248.6,252.8z M156.5,195.1
	l11.1,137.5c32-5.4,56.7-31.4,77.4-68.7L156.5,195.1z M82,321.6c6.1,4.7,17,11.8,32.3,15.6c19.1,4.7,35,1.8,42.8-0.2
	c-3.8-45.1-7.7-90.2-11.5-135.3L82,321.6z M137.5,179.3c-29.5-21.9-59-43.8-88.4-65.7c-7.1,11.1-16.6,28.7-21.9,51.9
	c-4.3,18.8-4.5,35.2-3.7,47C61.5,201.4,99.5,190.4,137.5,179.3z M24.9,230.7c-0.9,7.7-2.2,29,10.2,51.4c10.4,18.8,25.1,28.6,32,32.6
	c23.9-41.1,47.7-82.1,71.6-123.2C100.8,204.6,62.9,217.6,24.9,230.7z M139.5,167.9c-4.4-41.6-8.7-83.3-13.1-124.9
	c-9.7,3.5-22.8,9.5-36.2,19.8c-19.3,14.8-30.5,31.7-36.4,42.4C82.4,126.1,111,147,139.5,167.9z"/>
<path id="crust" class="st2" d="M266,30.8c12.4,20.1,46.3,60,38.6,175.1c-2.1,30.9-17.7,85.9-58.4,133.8c-40.8,48-103,46.3-121,46.8
	c12.6,4.2,31.2,9,54.1,10.3c10.1,0.6,21.5,1.2,35.9-1.2c5.5-0.9,32-5.6,59.5-25.4c25.2-18.1,37.8-39.4,46.3-53.8
	c23.4-39.5,33.8-88.8,28.3-149.9c-2.7-17.1-9.3-45.1-27.4-74.9C303.1,60.5,280.3,41.1,266,30.8z"/>
<path id="light-pulp" class="st3" d="M214.1,102.6c1.9-2,2-2.2,2.6-2.8c5.7-5.8,7-5.8,10.8-9.9c3.2-3.4,3.3-4.4,6.6-7.4
	c2.7-2.4,4.4-3.8,6.4-3.7c2.1,0.2,3.7,2.4,6.8,6.9c1.3,1.9,0.9,1.6,5.9,10c0.7,1.1,1.4,2.3,2.2,4c1,2,2,4.2,2.5,5.7
	c1.5,4.2,1.7,8.7,1.5,12.2c-2.7,0.2-6.5,0.7-10.9,1.9c-3.9,1-7.1,2.2-11,3.8c-5,2.1-12.4,5.6-21.6,10.9c1-3,1.9-6.1,2.9-9.1
	c-8.9,3.5-17.9,7.1-26.8,10.6c7.3-7.3,14.5-14.5,21.8-21.7c-3.5,0-7,0.1-10.5,0.1C207.9,109.2,211.5,105.3,214.1,102.6z M155.5,93.9
	c2.4-2.6,4.8-5.2,7.2-7.7c0.3,10.3,0.6,20.5,0.8,30.8c3.6-8.9,7.2-17.9,10.7-26.8c1.5,2.8,3.1,5.6,4.6,8.4c2.4-10.3,5-18,6.9-23.2
	c1.5-4,2.8-7.1,4.7-10.6c2.2-4,4.4-7.1,6.2-9.2c-2.4-2.6-5.8-5.5-9.9-7.3c-1.4-0.6-3.7-1.4-5.8-2.1c-1.8-0.5-3.1-0.8-4.4-1.1
	c-9.5-2.2-9.1-2.2-11.4-2.6c-5.4-0.9-8.2-1.2-9.7,0.2c-1.5,1.4-1.6,3.5-1.7,7.2c-0.2,4.4,0.6,5.2,0.8,9.9c0.3,5.6-0.6,6.6-0.2,14.7
	c0,0.8,0.1,1.1,0.2,3.8C154.7,81.9,155.1,87.3,155.5,93.9z M215.8,178.2c2.4,2.2,4.8,4.3,7.3,6.5c-8.8,1.3-17.6,2.7-26.4,4
	c8,2.7,15.9,5.4,23.9,8.1c-2.3,1.9-4.5,3.7-6.8,5.6c9,1.4,15.9,3.2,20.5,4.6c3.5,1.1,6.3,2.1,9.5,3.7c3.6,1.8,6.5,3.8,8.5,5.3
	c2-2.7,4.3-6.5,5.5-10.8c0.4-1.5,0.9-3.9,1.3-6.2c0.3-1.9,0.5-3.3,0.6-4.6c1-9.9,1.1-9.5,1.3-11.8c0.3-5.6,0.4-8.4-1-9.9
	c-1.3-1.4-3.2-1.3-6.3-1c-3.8,0.3-4.4,1.1-8.4,1.9c-4.8,0.9-5.7,0.1-12.6,1.3c-0.7,0.1-0.9,0.2-3.3,0.6
	C226,176.2,221.5,177.1,215.8,178.2z M214.7,177.5c2.4,2.2,4.8,4.3,7.3,6.5c-8.8,1.3-17.6,2.7-26.4,4c8,2.7,15.9,5.4,23.9,8.1
	c-2.3,1.9-4.5,3.7-6.8,5.6c9,1.4,15.9,3.2,20.5,4.6c3.5,1.1,6.3,2.1,9.5,3.7c3.6,1.8,6.5,3.8,8.5,5.3c2-2.7,4.3-6.5,5.5-10.8
	c0.4-1.5,0.9-3.9,1.3-6.2c0.3-1.9,0.5-3.3,0.6-4.6c1-9.9,1.1-9.5,1.3-11.8c0.3-5.6,0.4-8.4-1-9.9c-1.3-1.4-3.2-1.3-6.3-1
	c-3.8,0.3-4.4,1.1-8.4,1.9c-4.8,0.9-5.7,0.1-12.6,1.3c-0.7,0.1-0.9,0.2-3.3,0.6C224.9,175.5,220.3,176.4,214.7,177.5z M194.7,248.6
	c-0.1,3.2-0.2,6.5-0.3,9.7c-6.7-5.9-13.3-11.8-20-17.7c3,7.9,6.1,15.7,9.1,23.6c-2.9-0.5-5.8-1.1-8.6-1.6c3.9,6.3,6,11.7,7.3,15.5
	c1.1,3.4,1.5,5.3,3.2,9.6c1.5,3.6,2.5,5.3,3.8,9c1.1,3.1,1.7,5.6,2,7.4c3.7-0.7,6.1-2,7.7-3.1c1.8-1.3,5.3-4.3,7.6-5.7
	c0.1-0.1,0.6-0.4,1.2-0.8c1-0.6,1.9-1.2,2.7-1.7c8.3-5.6,8-5.2,9.9-6.6c4.5-3.4,6.7-5.1,6.9-7.1c0.2-1.9-1.1-3.2-3.3-5.5
	c-2.7-2.7-3.7-2.7-6.8-5.3c-3.8-3.1-3.7-4.3-9.1-8.9c-0.6-0.5-0.7-0.6-2.6-2.1C202.8,255.2,199.2,252.3,194.7,248.6z M140.3,273.5
	c-2.5,2.1-4.9,4.2-7.4,6.3c-0.1-8.9-0.3-17.8-0.4-26.7c-3.8,7.5-7.6,15.1-11.3,22.6c-1.5-2.5-3.1-5-4.6-7.5
	c-2.6,8.8-5.4,15.3-7.4,19.7c-1.6,3.3-3,6-5,8.9c-2.3,3.3-4.6,5.9-6.4,7.7c2.4,2.3,5.8,5.1,10,6.9c1.5,0.6,3.7,1.4,5.9,2.1
	c1.8,0.6,3.2,0.9,4.5,1.2c9.7,2.4,9.2,2.4,11.5,2.9c5.5,1,8.3,1.5,9.9,0.4c1.5-1.1,1.7-3,1.9-6.1c0.2-3.8-0.5-4.5-0.7-8.6
	c-0.3-4.9,0.7-5.7,0.4-12.7c0-0.7,0-0.9-0.2-3.3C140.8,283.9,140.6,279.3,140.3,273.5z M91.9,252.9c-3.2,0.2-6.5,0.5-9.7,0.7
	c5.2-7.2,10.3-14.5,15.5-21.7c-7.5,3.8-15,7.6-22.5,11.5c0.2-2.9,0.5-5.8,0.7-8.8c-7.3,5.5-13.4,9.1-17.6,11.4
	c-3.2,1.8-5.9,3.1-9.3,4.2c-3.8,1.3-7.2,2-9.7,2.4c0.5,3.3,1.7,7.6,3.9,11.5c0.8,1.4,2.2,3.4,3.5,5.2c1.1,1.5,2,2.6,2.9,3.6
	c6.4,7.7,6,7.4,7.6,9.1c3.8,4.1,5.8,6.1,7.8,6.2c1.9,0,3.1-1.4,5.1-3.8c2.5-3,2.3-3.9,4.5-7.3c2.7-4.1,3.9-4.2,7.9-10
	c0.4-0.6,0.5-0.8,1.8-2.8C86.2,261.6,88.7,257.7,91.9,252.9z M84.2,182.9c-2.1-2.5-4.2-4.9-6.3-7.4c8.9-0.1,17.8-0.3,26.7-0.4
	c-7.5-3.8-15.1-7.5-22.6-11.3c2.5-1.5,5-3.1,7.5-4.6c-8.8-2.6-15.3-5.4-19.7-7.4c-3.3-1.6-6-3-8.9-5c-3.3-2.3-5.9-4.6-7.7-6.4
	c-2.3,2.4-5.1,5.8-6.9,10c-0.6,1.5-1.4,3.7-2.1,5.9c-0.6,1.8-0.9,3.2-1.2,4.5c-2.4,9.7-2.4,9.2-2.9,11.5c-1,5.5-1.5,8.3-0.4,9.9
	c1.1,1.5,3,1.7,6.1,1.9c3.8,0.2,4.5-0.5,8.6-0.7c4.9-0.3,5.7,0.7,12.7,0.4c0.7,0,0.9,0,3.3-0.2C73.8,183.5,78.4,183.2,84.2,182.9z
	 M105,125.4c-0.3-3.2-0.6-6.5-0.8-9.7c7.3,5.1,14.6,10.1,22,15.2c-3.9-7.4-7.9-14.9-11.8-22.3c2.9,0.2,5.8,0.4,8.8,0.6
	c-5.6-7.2-9.4-13.3-11.7-17.4c-1.8-3.2-3.2-5.9-4.4-9.2c-1.4-3.8-2.1-7.2-2.5-9.7c-3.3,0.6-7.6,1.8-11.4,4.1
	c-1.4,0.8-3.3,2.2-5.2,3.6c-1.5,1.2-2.6,2.1-3.6,2.9c-7.6,6.5-7.3,6.1-9,7.7c-4,3.9-6.1,5.9-6.1,7.9c0,1.9,1.4,3.1,3.9,5.1
	c3,2.4,4,2.2,7.4,4.4c4.1,2.6,4.2,3.8,10.1,7.7c0.6,0.4,0.8,0.5,2.8,1.8C96.3,119.8,100.2,122.3,105,125.4z"/>
<path id="spots" class="st4" d="M332.9,175.6c0,1.9-1.5,3.4-3.4,3.4s-3.4-1.5-3.4-3.4s1.5-3.4,3.4-3.4S332.9,173.7,332.9,175.6z
	 M315.4,138.5c-1.4,0-2.5,1.1-2.5,2.5s1.1,2.5,2.5,2.5c1.4,0,2.5-1.1,2.5-2.5S316.8,138.5,315.4,138.5z M325.6,127.3
	c-1.3,0-2.3,1-2.3,2.3s1,2.3,2.3,2.3s2.3-1,2.3-2.3S326.9,127.3,325.6,127.3z M322,218.5c-2.3,0-4.1,1.8-4.1,4.1s1.8,4.1,4.1,4.1
	s4.1-1.8,4.1-4.1S324.3,218.5,322,218.5z M334.5,209.4c-0.9,0-1.6,0.7-1.6,1.6c0,0.9,0.7,1.6,1.6,1.6s1.6-0.7,1.6-1.6
	C336.1,210.1,335.4,209.4,334.5,209.4z M322.9,257.7c-1.3,0-2.3,1-2.3,2.3c0,1.3,1,2.3,2.3,2.3c1.3,0,2.3-1,2.3-2.3
	C325.3,258.8,324.2,257.7,322.9,257.7z M310.2,272.3c-1.5,0-2.8,1.2-2.8,2.8s1.2,2.8,2.8,2.8c1.5,0,2.8-1.2,2.8-2.8
	S311.7,272.3,310.2,272.3z M291,291.4c-0.7,0-1.2,0.5-1.2,1.2c0,0.7,0.5,1.2,1.2,1.2c0.7,0,1.2-0.5,1.2-1.2
	C292.2,292,291.7,291.4,291,291.4z M286.5,340c-1.2,0.5-1.8,1.9-1.3,3.1c0.5,1.2,1.9,1.8,3.1,1.3c1.2-0.5,1.8-1.9,1.3-3.1
	C289.1,340,287.7,339.5,286.5,340z M288,323.3c1,1.3,2.8,1.6,4.2,0.7c1.3-1,1.6-2.8,0.7-4.2s-2.8-1.6-4.2-0.7
	C287.3,320.1,287.1,321.9,288,323.3z M302.3,313.3c-1.5,1.1-2,3-1,4.4c0.9,1.3,2.9,1.5,4.5,0.4c1.5-1.1,2-3,1-4.4
	C305.8,312.3,303.8,312.2,302.3,313.3z M256.2,349.6c-1,0-1.9,0.8-1.9,1.9s0.8,1.9,1.9,1.9s1.9-0.8,1.9-1.9S257.2,349.6,256.2,349.6
	z M249.9,367.9c-1,0-1.8,0.8-1.8,1.8c0,1,0.8,1.8,1.8,1.8c1,0,1.8-0.8,1.8-1.8C251.6,368.7,250.9,367.9,249.9,367.9z M238.4,370.4
	c0.4-0.7,0.1-1.5-0.6-2s-1.6-0.2-2,0.4c-0.4,0.7-0.1,1.5,0.6,2C237.1,371.2,238,371,238.4,370.4z M307.4,86.2
	c-1.9,0-3.4,1.5-3.4,3.4s1.5,3.4,3.4,3.4s3.4-1.5,3.4-3.4S309.3,86.2,307.4,86.2z"/>
</svg>
