<?xml version="1.0" encoding="utf-8"?>
<!-- Generator: Adobe Illustrator 27.2.0, SVG Export Plug-In . SVG Version: 6.00 Build 0)  -->
<svg version="1.1" id="orange" xmlns="http://www.w3.org/2000/svg" xmlns:xlink="http://www.w3.org/1999/xlink" x="0px" y="0px"
	 viewBox="0 0 190.4 198.1" style="enable-background:new 0 0 190.4 198.1;" xml:space="preserve">
<style type="text/css">
	.st0{fill:#F7941D;}
	.st1{fill:#EEC391;}
	.st2{fill:#F99F1E;}
	.st3{fill:#C46A29;}
	.st4{fill:#FCB84B;}
</style>
<path id="orange-crust" class="st0" d="M175.3,50.3c20.6,34.8,23.4,89.5-12.2,121.1c-28.6,25.5-70.6,25.8-100.1,12.4
	C13.3,161.3-11.9,95.4,12.7,48.2C26.3,22.1,55.1,1.9,88.1,0.1C142.7-2.8,173.1,46.5,175.3,50.3z"/>
<path id="orange-crust_00000027606938720943960960000008965656755449224121_" class="st1" d="M167.2,56c17.9,31.4,18.9,78-11,106.9
	c-23.4,22.7-58.5,27.3-85.5,17.4C21.9,162.6,0.2,98.1,20.4,54.2c1.5-3.3,16.6-34.7,51-43.5C109.5,0.9,149,24.1,167.2,56z"/>
<path id="orange-pulp" class="st2" d="M81.3,20.5c1.3-0.1,3.7-0.7,5.3,0.7c1.4,1.3,1.4,3.5,1.3,4.5l0,0c0,0,5,37.8,6.3,63.3
	c0.1,1.3,0.1,3.3-0.9,3.7c-0.7,0.3-1.9-0.3-3.4-1.8l-49.3-45c-2-2-1.5-3.9-0.2-6C44,33.9,64.6,21.8,81.3,20.5z M93.4,18
	c-2.4,0.4-4,1.3-3.9,4.1L96.2,90c0.2,2.2,0.6,3.5,1.4,3.8c1,0.5,2.4-0.9,3.2-1.8c16.5-18,38.5-47,38.5-47l0,0c0.8-0.6,2.3-2.1,2.1-4
	c-0.2-2.1-2.5-3.5-3.6-4.5C124.3,24.6,100.3,16.8,93.4,18z M149.6,45.3c-0.5-0.4-1.8-1.3-3.4-1c-0.7,0.1-1.4,0.5-2.2,1.3l-41.3,48.7
	c-1.4,1.5-1.9,2.7-1.6,3.4c0.5,1.1,2.8,0.9,3.5,0.9c23.7-1.5,63.4,2.2,66.9-1.4c1.5-1.5-2.1-14.3-2.1-14.3S165.6,60.6,149.6,45.3z
	 M170,113.7c0.6-5.6-1.4-7.2-1-9.4c0.3-1.7-6.3-1.1-9.1-1.2c-18.3-0.8-36.6-1.6-54.9-2.5c-1.2,0-2.5,0.2-2.8,1
	c-0.4,1.3,2.1,3.4,3,4.2c9.5,8.2,33.6,31.1,42.5,39.4c2.3,2.1,7.5,8.5,9.2,6.6c0.6-0.7,2.5-0.9,6.3-8.7
	C170,128.9,170,113.7,170,113.7z M144.4,164.2c1.1-0.6,8.8-5.2,7.1-8.7c-0.8-1.7-3.4-5.3-11-12.4c-14.3-13.4-28.6-30.1-36.9-36.6
	c-2.8-2.2-4-1.2-4.4-1.1c-1.2,0.3-0.8,2.5-0.7,4c0.5,6.1,4.8,47.1,4.7,58.9c0,1.3-0.2,8.3,3,9.8c0.5,0.2,1,0.3,1.4,0.4
	c2.2,0.4,3.9,0,6-0.5c4.2-1.2,5.7-1.8,5.7-1.8C132.7,170.5,136.6,168.5,144.4,164.2z M85.3,175.9c0.6,0.2,2.6,1.1,5.5,1.6
	c1.1,0.2,7,1.4,9.4-0.3c4.2-3.1-3.6-56.4-4.7-70c0-0.6-0.2-2.2-1.1-2.6c-1.2-0.4-3.1,1.8-3.8,2.6c-7.2,8.3-38.6,41.5-40.7,45.4
	c-0.5,0.9-1,2-0.7,3.1c0.1,0.3,0.2,0.4,0.7,1c0,0,0.4,0.5,0.7,1C54.9,163.6,85.3,175.9,85.3,175.9z M34,138.8
	c4.5,8.1,6.3,12.8,10.4,13.3c0.2,0,0.3,0,0.4,0c4.2-0.2,5.7-6.4,15.9-18c5.6-6.4,10-10.8,13-13.9c4.4-4.5,8.3-9.4,12.5-14
	c3-3.2,3.8-4.1,3.6-5.1c-0.8-3.5-32-3-32-3c-8.5,0-34.9-1.4-36.6,0.7c-2,2.4-1.1,6.5-0.3,10.5c0.3,1.4,0.5,2,2.3,7.1
	C26,124,29.1,129.9,34,138.8z M23.3,64.7c-4.7,10.8-4.7,20.5-5.4,26.5c-0.3,2.2-0.3,4,0.1,4.5c-0.3,0.5,1.2,0.7,3.9,0.7h64.8
	c3.4-0.9,3.6-2.6,1-5.2c-20.1-18-48.2-44.7-52.3-45.4C31,47.6,26.8,55.9,23.3,64.7z"/>
<path id="shadow" class="st3" d="M4.3,74.3C4.3,74.3,4.4,74.2,4.3,74.3c0-0.1-3.3,46.9,23.4,80.5c2.9,3.6,15.7,19.1,38.5,28.3
	c17.8,7.2,35.1,6.7,47,6.6c6.7-0.1,12.4-0.6,16.3-1c-7.5,3.8-26.6,12.2-50.7,8.6c-28.4-4.3-45.1-22.6-52.4-29.9
	c-6.4-6.4-20.6-22.9-25.2-48.7C-2.7,96.5,3.9,77.3,4.3,74.3z"/>
<path id="orange-pulp-light" class="st4" d="M45.8,59.7c6.3,3.6,10.9,7.4,10.3,8.4c-0.6,1-6.2-1.1-12.4-4.7
	C37.4,59.7,32.8,56,33.3,55S39.5,56.1,45.8,59.7z M53.4,80.3c0.5-1.3-4.2-4.3-10.4-6.7c-6.2-2.5-11.7-3.4-12.2-2.2
	c-0.5,1.3,4.2,4.3,10.4,6.7S52.9,81.6,53.4,80.3z M21.8,85c-0.3,1.2,4.6,3.3,11,4.7s11.6,1.6,11.9,0.5c0.3-1.2-4.6-3.3-11-4.7
	C27.4,84,22.1,83.8,21.8,85z M51.1,85.7c-0.3,1.1,3.5,3,8.5,4.4c5,1.3,9.2,1.5,9.5,0.5c0.3-1.1-3.5-3-8.5-4.4
	C55.6,84.8,51.4,84.6,51.1,85.7z M57,74.8c-0.6,0.9,2.4,3.9,6.8,6.7c4.3,2.7,8.3,4.2,8.9,3.3c0.6-0.9-2.4-3.9-6.8-6.7
	S57.6,73.9,57,74.8z M78.9,25.9c-1,0.4,0.1,6.7,2.4,14s5.1,12.8,6.1,12.4c1-0.4-0.1-6.7-2.4-14S79.9,25.5,78.9,25.9z M78.4,60.6
	c1.1-0.7-0.5-6.4-3.4-12.6c-3-6.3-6.3-10.8-7.4-10.1c-1.1,0.7,0.5,6.4,3.4,12.6S77.3,61.3,78.4,60.6z M53.3,43
	c-0.9,0.8,1.4,5.9,5,11.3c3.7,5.5,7.3,9.3,8.2,8.5c0.9-0.8-1.4-5.9-5-11.3S54.1,42.2,53.3,43z M73.6,63.5c-0.8,0.7,0.7,4.9,3.5,9.4
	s5.6,7.5,6.5,6.9s-0.7-4.9-3.5-9.4C77.3,65.8,74.4,62.8,73.6,63.5z M84.1,58.5c-1,0.4-0.5,4.9,0.9,10.1s3.5,9.2,4.5,8.8
	c1-0.4,0.5-4.9-0.9-10.1C87.1,62,85.1,58.1,84.1,58.5z M128.1,35.4c-0.9-0.5-4.4,5.1-7.7,12.5s-5.3,13.7-4.4,14.2
	c0.9,0.5,4.4-5.1,7.7-12.5S129,35.9,128.1,35.4z M104.8,61.1c1.1,0.3,3.9-5.2,6.2-12.3s3.2-13.2,2-13.5c-1.1-0.3-3.9,5.2-6.2,12.3
	C104.6,54.7,103.7,60.8,104.8,61.1z M100.7,27.8c-1.1-0.1-3,5.5-4.3,12.6c-1.3,7.1-1.5,12.8-0.5,12.9s3-5.5,4.3-12.6
	C101.6,33.6,101.8,27.9,100.7,27.8z M101.5,59.5c-1-0.1-2.8,4.3-4,9.8S96,79.5,97,79.7s2.8-4.3,4-9.8
	C102.2,64.2,102.5,59.6,101.5,59.5z M109.9,64.1c-0.9-0.5-3.6,3.3-6.1,8.4c-2.5,5.1-3.9,9.7-3,10.2c0.9,0.5,3.6-3.3,6.1-8.4
	C109.4,69.2,110.7,64.6,109.9,64.1z M166.9,83.9c-0.2-1-6.7,0-14.5,2.2c-7.8,2.2-13.9,4.9-13.6,5.9s6.7,0,14.5-2.2
	C161,87.5,167.1,84.9,166.9,83.9z M132.2,82.9c0.5,1.1,6.5-0.4,13.4-3.3c6.9-2.9,12.1-6.1,11.6-7.2c-0.5-1.1-6.5,0.4-13.4,3.3
	C136.9,78.6,131.7,81.8,132.2,82.9z M154.9,58.1c-0.6-0.9-6.2,1.3-12.4,4.9s-10.8,7.2-10.1,8c0.6,0.9,6.2-1.3,12.4-4.9
	C151,62.6,155.5,59,154.9,58.1z M131.3,79.3c-0.5-0.8-5,0.7-10.1,3.3c-5,2.7-8.7,5.5-8.2,6.4c0.5,0.8,5-0.7,10.1-3.3
	C128.1,83,131.8,80.1,131.3,79.3z M133.2,88.7c-0.2-1-4.8-0.6-10.4,0.8c-5.5,1.4-9.9,3.4-9.7,4.3c0.2,1,4.8,0.6,10.4-0.8
	C129,91.6,133.3,89.6,133.2,88.7z M128.1,35.4c-0.9-0.5-4.4,5.1-7.7,12.5s-5.3,13.7-4.4,14.2c0.9,0.5,4.4-5.1,7.7-12.5
	S129,35.9,128.1,35.4z M104.8,61.1c1.1,0.3,3.9-5.2,6.2-12.3s3.2-13.2,2-13.5c-1.1-0.3-3.9,5.2-6.2,12.3
	C104.6,54.7,103.7,60.8,104.8,61.1z M100.7,27.8c-1.1-0.1-3,5.5-4.3,12.6c-1.3,7.1-1.5,12.8-0.5,12.9s3-5.5,4.3-12.6
	C101.6,33.6,101.8,27.9,100.7,27.8z M101.5,59.5c-1-0.1-2.8,4.3-4,9.8S96,79.5,97,79.7s2.8-4.3,4-9.8
	C102.2,64.2,102.5,59.6,101.5,59.5z M109.9,64.1c-0.9-0.5-3.6,3.3-6.1,8.4c-2.5,5.1-3.9,9.7-3,10.2c0.9,0.5,3.6-3.3,6.1-8.4
	C109.4,69.2,110.7,64.6,109.9,64.1z M156.9,136.2c0.6-0.7-4.4-4.3-11.1-7.9c-6.7-3.6-12.7-6-13.3-5.2s4.4,4.3,11.1,7.9
	C150.4,134.6,156.3,136.9,156.9,136.2z M135.2,113.7c-0.5,0.9,4.5,3.9,11.1,6.6c6.7,2.7,12.5,4.1,13,3.2c0.5-0.9-4.5-3.9-11.1-6.6
	C141.6,114.1,135.7,112.7,135.2,113.7z M168.7,113.7c0.3-0.9-5-3.1-11.7-5c-6.7-1.9-12.4-2.7-12.7-1.8c-0.3,0.9,5,3.1,11.7,5
	S168.4,114.6,168.7,113.7z M137.4,111c0.3-0.8-3.8-2.8-9.1-4.5c-5.3-1.6-9.8-2.3-10.1-1.5c-0.3,0.8,3.8,2.8,9.1,4.5
	C132.6,111.1,137.1,111.8,137.4,111z M131.5,117.6c0.6-0.7-2.7-3.4-7.3-6.1s-8.9-4.3-9.6-3.6c-0.6,0.7,2.7,3.4,7.3,6.1
	C126.6,116.6,130.9,118.3,131.5,117.6z M25.3,111.2c0.3,1,6.2,0.3,13.2-1.6s12.4-4.2,12-5.3c-0.3-1-6.2-0.3-13.2,1.6
	S25,110.2,25.3,111.2z M57.5,113.7c-0.6-1.1-6,0.1-12,2.7c-6.1,2.6-10.6,5.6-10,6.7c0.6,1.1,6-0.1,12-2.7S58.1,114.8,57.5,113.7z
	 M39,137.3c0.7,0.9,5.6-1,11-4.3s9.2-6.7,8.6-7.5s-5.6,1-11,4.3C42.2,133,38.3,136.4,39,137.3z M59.8,118.5c0.6,0.9,4.6-0.4,9-2.9
	c4.4-2.4,7.5-5.1,6.9-6c-0.6-0.9-4.6,0.4-9,2.9C62.3,115,59.2,117.7,59.8,118.5z M56,107.9c0.3,1,4.5,0.8,9.5-0.4
	c5-1.2,8.8-2.9,8.5-3.9c-0.3-1-4.5-0.8-9.5,0.4S55.8,106.9,56,107.9z M63,162.4c1,0.4,4.1-4.6,7-11.2c2.9-6.6,4.5-12.2,3.5-12.6
	c-1-0.4-4.1,4.6-7,11.2C63.6,156.3,62,162,63,162.4z M84.8,139.3c-1.2-0.3-3.6,4.6-5.5,11c-1.9,6.3-2.4,11.7-1.2,12
	c1.2,0.3,3.6-4.6,5.5-11C85.4,144.9,85.9,139.5,84.8,139.3z M90.4,172.7c1.1,0.1,2.8-5.9,3.8-13.3s1-13.4-0.1-13.5
	c-1.1-0.1-2.8,5.9-3.8,13.3S89.4,172.6,90.4,172.7z M89.8,140.6c1,0.1,2.5-3.8,3.4-8.8c0.9-4.9,0.8-9-0.1-9.1s-2.5,3.8-3.4,8.8
	C88.7,136.4,88.8,140.5,89.8,140.6z M79.6,136.7c0.9,0.4,3.4-3,5.6-7.5c2.2-4.6,3.3-8.6,2.4-9c-0.9-0.4-3.4,3-5.6,7.5
	C79.7,132.2,78.7,136.3,79.6,136.7z M116.2,170.7c1-0.4-0.4-6.7-3-14.1c-2.6-7.4-5.5-13.1-6.5-12.7s0.4,6.7,3,14.1
	C112.4,165.4,115.3,171.1,116.2,170.7z M115.2,136c-1,0.7,0.7,6.4,3.9,12.8c3.2,6.4,6.6,11.1,7.6,10.4s-0.7-6.4-3.9-12.8
	C119.6,140,116.2,135.3,115.2,136z M143,158.2c0.8-0.8-2.2-6.7-6.7-13.4c-4.5-6.6-8.8-11.4-9.6-10.6c-0.8,0.8,2.2,6.7,6.7,13.4
	C137.9,154.2,142.2,159,143,158.2z M119.7,133.3c0.8-0.7-0.9-4.9-3.8-9.5c-2.9-4.6-5.8-7.8-6.6-7.1c-0.8,0.7,0.9,4.9,3.8,9.5
	C116,130.7,118.9,133.9,119.7,133.3z M109.7,137.8c0.9-0.3,0.3-4.9-1.4-10.2c-1.7-5.3-3.8-9.3-4.7-9c-0.9,0.3-0.3,4.9,1.4,10.2
	C106.6,134.2,108.8,138.2,109.7,137.8z"/>
</svg>
