<?xml version="1.0" encoding="utf-8"?>
<!-- Generator: Adobe Illustrator 27.2.0, SVG Export Plug-In . SVG Version: 6.00 Build 0)  -->
<svg version="1.1" id="Passionfruit" xmlns="http://www.w3.org/2000/svg" xmlns:xlink="http://www.w3.org/1999/xlink" x="0px"
	 y="0px" viewBox="0 0 720 288" style="enable-background:new 0 0 720 288;" xml:space="preserve">
<style type="text/css">
	.st0{fill:#B22450;}
	.st1{fill:#E5CFD7;}
	.st2{fill:#DDB850;}
	.st3{fill:#F4CC7A;}
	.st4{fill:#8C3A4F;stroke:#B22450;stroke-miterlimit:10;}
	.st5{fill:#936A22;}

</style>
<ellipse id="inner-skin" transform="matrix(0.6843 -0.7292 0.7292 0.6843 -18.2188 259.4898)" class="st0" cx="290.6" cy="150.8" rx="31.4" ry="18.8"/>
<ellipse id="passion-rind" transform="matrix(0.6843 -0.7292 0.7292 0.6843 -18.2188 259.4898)" class="st1" cx="290.6" cy="150.8" rx="29.5" ry="15.6"/>
<ellipse id="pulp" transform="matrix(0.6843 -0.7292 0.7292 0.6843 -18.2188 259.4898)" class="st2" cx="290.6" cy="150.8" rx="25.2" ry="13.3"/>
<path id="light-seeds" class="st3" d="M281.5,155.5c0.9,0.8,0.2,2.8-1.4,4.5s-3.6,2.4-4.5,1.6c-0.9-0.8-0.2-2.8,1.4-4.5
	C278.6,155.4,280.6,154.7,281.5,155.5z M280.2,145.8c-1.3,1.4-1.7,3.2-0.8,4c0.9,0.8,2.6,0.3,3.9-1.1s1.7-3.2,0.8-4
	C283.3,143.9,281.5,144.4,280.2,145.8z M304.5,142.7c-1.4,1.5-1.8,3.3-0.9,4.1s2.7,0.3,4-1.2c1.4-1.5,1.8-3.3,0.9-4.1
	C307.7,140.7,305.9,141.2,304.5,142.7z M294.6,154.5c-1.6,1.7-2.2,3.7-1.4,4.5s2.8,0.1,4.5-1.6s2.2-3.7,1.4-4.5
	S296.2,152.8,294.6,154.5z M284.9,161.8c-1.6,1.7-1.4,4.5-1.4,4.5s2.8,0.1,4.5-1.6c1.6-1.7,2.2-3.7,1.4-4.5
	C288.5,159.3,286.5,160.1,284.9,161.8z M294.7,144.4c-0.5-0.5-2,0.1-3.2,1.4c-1.2,1.3-1.8,2.7-1.2,3.2c0.5,0.5,2-0.1,3.2-1.4
	S295.3,144.9,294.7,144.4z M293.7,134.5c-1.3,1.4-1.7,3.2-0.8,4c0.9,0.8,2.6,0.3,3.9-1.1c1.3-1.4,1.7-3.2,0.8-4
	C296.8,132.6,295,133.1,293.7,134.5z"/>
<path id="crust" class="st4" d="M316.1,167.4c-1.4,2-7.4,9.9-18.3,12.5c-1.1,0.3-5.9,1.3-12.1,0.3c-5.6-1-9.5-3-11.7-4.4
	c21.7,2.9,47.5-24.7,38.8-45.7c0,0,5.8,6.8,7,9.1c1.2,2.3,2.5,5,2.8,8.8c0.2,3.5-0.6,6.1-1.8,9.6C320,160.1,318.8,163.7,316.1,167.4
	z"/>
<path id="seeds" class="st5" d="M292.6,145.7c0.5,0.4,0.3,1.4-0.4,2.2c-0.7,0.8-1.7,1-2.1,0.6c-0.5-0.4-0.3-1.4,0.4-2.2
	C291.2,145.5,292.2,145.2,292.6,145.7z M303.8,142.7c-0.8,0.9-1,2-0.5,2.5c0.6,0.5,1.7,0.2,2.5-0.7c0.8-0.9,1-2,0.5-2.5
	S304.6,141.8,303.8,142.7z M278.4,156.7c-0.8,0.9-1,2-0.5,2.5c0.6,0.5,1.7,0.2,2.5-0.7c0.8-0.9,1-2,0.5-2.5
	C280.3,155.6,279.2,155.9,278.4,156.7z M285.6,161.5c-0.8,0.9-1,2-0.5,2.5c0.6,0.5,1.7,0.2,2.5-0.7c0.8-0.9,1-2,0.5-2.5
	C287.5,160.3,286.4,160.6,285.6,161.5z M295.6,156.6c0.8-0.9,1-2,0.5-2.5c-0.6-0.5-1.7-0.2-2.5,0.7s-1,2-0.5,2.5
	S294.7,157.4,295.6,156.6z M295.6,137.3c0.8-0.9,1-2,0.5-2.5c-0.6-0.5-1.7-0.2-2.5,0.7s-1,2-0.5,2.5S294.8,138.2,295.6,137.3z
	 M281.6,147.4c0.8-0.9,1-2,0.5-2.5c-0.6-0.5-1.7-0.2-2.5,0.7c-0.8,0.9-1,2-0.5,2.5C279.7,148.6,280.8,148.3,281.6,147.4z"/>
</svg>
