<?xml version="1.0" encoding="utf-8"?>
<!-- Generator: Adobe Illustrator 27.2.0, SVG Export Plug-In . SVG Version: 6.00 Build 0)  -->
<svg version="1.1" id="Layer_2" xmlns="http://www.w3.org/2000/svg" xmlns:xlink="http://www.w3.org/1999/xlink" x="0px" y="0px"
	 viewBox="0 0 147.8 253.3" style="enable-background:new 0 0 147.8 253.3;" xml:space="preserve">
<style type="text/css">
	.st0{fill:#CEAB74;}
	.st1{fill:#C4A44D;stroke:#594427;stroke-miterlimit:10;}
	.st2{fill:#0E681D;stroke:#385E41;stroke-miterlimit:10;}
	.st3{fill:#2C5634;}
	.st4{fill:none;stroke:#594427;stroke-miterlimit:10;}
</style>
<g id="Layer_2">
	<g>
		<path id="fill_00000111188200808278301470000013281834245008489375_" class="st0" d="M41.6,119.9L31,126.4l-12.4,4.9l-6.8,14
			l-7.1,10.5c-1.8,5-1.7,9.4,0,13.2L0.5,180l2.7,8.2c-3.9,5.6-3.4,11.2,0.6,16.9c-0.1,6.9,0.7,12.9,4.1,16.6l1.2,7.9
			c0,0,11.9,10.2,17.1,10.5c2.5,2.6,7.5,7.1,15.5,9.7c3.3,1,6.3,1.5,8.8,1.7c1.6,0.4,3.5,0.7,5.5,0.8c3.3,0.3,6.2,0.2,8.6-0.1
			c10.9,1.3,18.5,0.6,22.4-2.4c12,0.2,17.9-3.8,21-9.7l10.6-6.8c0.3-0.4,0.7-1.1,1.2-1.9c1.1-1.9,2.4-4.3,3.5-7.9
			c1.7-5.2,1.1-6.2,2.9-10.5c0.7-1.8,1.4-3.2,2-4.1c0.8-5.1,1.5-10.3,2.3-15.4c0,0,1.5-18.2-3.8-23.4c-1.8-4.8-3.5-9.4-5-13.4
			c0.2-5.9-1-10.4-4.1-13.4c0,0-3.1-8-8.6-12.6c-5.5-4.6-5.5-4.6-5.5-4.6c-9.8-3.3-16.1-3-20.1-2.1c-1.2,0.3-2.9,0.8-5.7,1.3
			c-5.1,0.8-9.4,0.8-12.2,0.7c-2.7-0.2-4.9-0.6-6.7-1c-3.6-0.8-5.7-1.3-8.1-2.6c-2-1.1-2.8-2-4.8-2.3
			C44.1,119.4,42.6,119.7,41.6,119.9z"/>
		<path id="leaves_00000096017905490409690070000006849901269995463565_" class="st0" d="M72,127.1c8.4,0.5,15-1.3,18.6-2.6
			c3.5-1,6.8-1.4,9.9-1.3c9.3,0.2,15.3,4.9,15.8,4.3c0.3-0.4-2.4-2.9-14.9-11.7c-0.1-0.2-0.2-0.4-0.1-0.5c0.9-2.4,9.5-3.6,23.6,1.9
			c-0.9-1.5-4.1-6.5-11.1-9.1c-7.4-2.8-16.5,0.2-16.7-0.2c0-0.1,0.1-0.1,0.1-0.1c10.7-14.1,42.7-21.2,45-18.3c0,0,0,0,0,0
			c0,0,0,0,0,0c-13.3-4.1-28.4-1.8-28.4-1.8c-11.9,4-19.2,5.4-19.6,3.4c-1-5.5,19.3-24.8,51.5-40.5c-5.6,0-13.5,0.6-22.4,3.2
			c-13,3.8-22,10-26.9,14.1c4.3-12.6,7.4-25.4,9.3-38.4c-0.2-3.2-0.1-8.3,2.6-13.8c1-2.1,2.2-3.9,3.3-5.3c-3.5,1.5-8.7,4.1-13.6,8.8
			c-7.1,6.7-9.9,13.9-11,17.7c0.4-2,0.7-4.5,0.5-7.4c-0.4-5-2-8.8-3.3-11.3c-2.2,3.7-4.5,7.9-6.5,12.7c-2.7,6.1-4.5,21.8-5.8,16.8
			c-2.8-11.2-8.5-19.8-15.9-26.7c-1-3-5.5-8.6-6.1-18.4c-2.1,5.3-4.3,12.8-4.8,21.9C44.3,38,56.6,60.2,51,55.5
			C34.8,41.8,23.9,37.9,13.9,35.6C25.4,45.3,37,53.3,42.3,61.6c6.8,10.6,7.2,12.8,9.2,13.9c-2.9-3.6-7.2-3.9-43.7-12.1
			c2.2,3.2,5.8,7.7,11.7,11.8c7.3,5.2,23.5,8,19,8.4c-13.7,1.4-27.9,12.4-27.5,12.9c0,0,1-0.5,1.4-0.6c3.7-1.7,10-3.5,17.1-2.8
			c11.4,1.2,19.7,8.6,19.2,9.6c-0.3,0.5-2.6-0.6-5.1-0.8c-5-0.4-12.6,3-23.2,20c6.1-4.7,12.5-9.3,21.2-12.4
			c-4.4,4.8-19.2,17.2-13.1,14.3c6.9-3.3,14.5-4.3,22.7-2.7l0,0C54.5,123,61.9,126.6,72,127.1z"/>
		<g id="lines_00000097495903828431785070000005910743873691450543_">
			<path class="st0" d="M82.3,52.9c0.2-2.2,0.6-4.7,1.3-7.4c1-3.7,2.3-6.9,3.6-9.4 M49.4,18.5c0.6,3.6,1.5,7.5,3,11.8
				c3.2,9.4,7.9,16.8,12,22.1 M96.4,67.8L84.7,85.6 M38.6,83.7l20.5,15.1 M75.1,126.9c-12.2-11.6-26.6-11.5-42.4-4.7 M103,120.3
				c-14.3-4.6-25.5-4.8-31.6,1.9 M51.9,56l10,12.1"/>
			<g>
				<path class="st0" d="M82.2,52.9c-0.7-6,1.2-12.2,5-16.8c0,0,0.1,0,0.1,0C84.5,41.3,83.1,47.4,82.2,52.9L82.2,52.9z"/>
				<path class="st0" d="M49.5,18.5c3.2,12,8.3,23.4,15,33.9c0,0-0.1,0.1-0.1,0.1C56.8,42.7,51.1,30.7,49.5,18.5L49.5,18.5z"/>
				<path class="st0" d="M96.4,67.8c-2.9,6.6-6.9,12.6-11.7,17.9c0,0-0.1-0.1-0.1-0.1C87.5,81.1,93.4,72.2,96.4,67.8
					C96.3,67.8,96.4,67.8,96.4,67.8L96.4,67.8z"/>
				<path class="st0" d="M38.6,83.6C46,87.7,53,92.9,59.1,98.8c0,0-0.1,0.1-0.1,0.1C54,95.1,43.3,87.5,38.6,83.6L38.6,83.6z"/>
				<path class="st0" d="M75,126.9c-12.1-9.9-25.2-10.2-39.6-5.6c-0.9,0.3-1.8,0.6-2.7,0.9l0-0.1C47.3,115.6,63.3,114.9,75,126.9
					L75,126.9z"/>
				<path class="st0" d="M103,120.3c-10.3-1.8-22.7-5.5-31.6,1.9c0,0-0.1-0.1-0.1-0.1C79.2,113.8,93.6,117.1,103,120.3L103,120.3z"
					/>
				<path class="st0" d="M51.9,55.9c3.2,2.4,5.8,5.4,8,8.7c0.6,1,1.5,2.4,2,3.4c0,0-0.1,0.1-0.1,0.1C59.3,65.1,54.3,59,51.9,55.9
					C51.8,56,51.9,55.9,51.9,55.9L51.9,55.9z"/>
			</g>
		</g>
	</g>
	<g>
		<path id="fill_00000023999101303973282930000018088299912695649199_" class="st1" d="M41.6,119.9L31,126.4l-12.4,4.9l-6.8,14
			l-7.1,10.5c-1.8,5-1.7,9.4,0,13.2L0.5,180l2.7,8.2c-3.9,5.6-3.4,11.2,0.6,16.9c-0.1,6.9,0.7,12.9,4.1,16.6l1.2,7.9
			c0,0,11.9,10.2,17.1,10.5c2.5,2.6,7.5,7.1,15.5,9.7c3.3,1,6.3,1.5,8.8,1.7c1.6,0.4,3.5,0.7,5.5,0.8c3.3,0.3,6.2,0.2,8.6-0.1
			c10.9,1.3,18.5,0.6,22.4-2.4c12,0.2,17.9-3.8,21-9.7l10.6-6.8c0.3-0.4,0.7-1.1,1.2-1.9c1.1-1.9,2.4-4.3,3.5-7.9
			c1.7-5.2,1.1-6.2,2.9-10.5c0.7-1.8,1.4-3.2,2-4.1c0.8-5.1,1.5-10.3,2.3-15.4c0,0,1.5-18.2-3.8-23.4c-1.8-4.8-3.5-9.4-5-13.4
			c0.2-5.9-1-10.4-4.1-13.4c0,0-3.1-8-8.6-12.6c-5.5-4.6-5.5-4.6-5.5-4.6c-9.8-3.3-16.1-3-20.1-2.1c-1.2,0.3-2.9,0.8-5.7,1.3
			c-5.1,0.8-9.4,0.8-12.2,0.7c-2.7-0.2-4.9-0.6-6.7-1c-3.6-0.8-5.7-1.3-8.1-2.6c-2-1.1-2.8-2-4.8-2.3
			C44.1,119.4,42.6,119.7,41.6,119.9z"/>
		<path id="leaves_00000034795868958641928030000008052909424028609931_" class="st2" d="M72,127.1c8.4,0.5,15-1.3,18.6-2.6
			c3.5-1,6.8-1.4,9.9-1.3c9.3,0.2,15.3,4.9,15.8,4.3c0.3-0.4-2.4-2.9-14.9-11.7c-0.1-0.2-0.2-0.4-0.1-0.5c0.9-2.4,9.5-3.6,23.6,1.9
			c-0.9-1.5-4.1-6.5-11.1-9.1c-7.4-2.8-16.5,0.2-16.7-0.2c0-0.1,0.1-0.1,0.1-0.1c10.7-14.1,42.7-21.2,45-18.3c0,0,0,0,0,0
			c0,0,0,0,0,0c-13.3-4.1-28.4-1.8-28.4-1.8c-11.9,4-19.2,5.4-19.6,3.4c-1-5.5,19.3-24.8,51.5-40.5c-5.6,0-13.5,0.6-22.4,3.2
			c-13,3.8-22,10-26.9,14.1c4.3-12.6,7.4-25.4,9.3-38.4c-0.2-3.2-0.1-8.3,2.6-13.8c1-2.1,2.2-3.9,3.3-5.3c-3.5,1.5-8.7,4.1-13.6,8.8
			c-7.1,6.7-9.9,13.9-11,17.7c0.4-2,0.7-4.5,0.5-7.4c-0.4-5-2-8.8-3.3-11.3c-2.2,3.7-4.5,7.9-6.5,12.7c-2.7,6.1-4.5,21.8-5.8,16.8
			c-2.8-11.2-8.5-19.8-15.9-26.7c-1-3-5.5-8.6-6.1-18.4c-2.1,5.3-4.3,12.8-4.8,21.9C44.3,38,56.6,60.2,51,55.5
			C34.8,41.8,23.9,37.9,13.9,35.6C25.4,45.3,37,53.3,42.3,61.6c6.8,10.6,7.2,12.8,9.2,13.9c-2.9-3.6-7.2-3.9-43.7-12.1
			c2.2,3.2,5.8,7.7,11.7,11.8c7.3,5.2,23.5,8,19,8.4c-13.7,1.4-27.9,12.4-27.5,12.9c0,0,1-0.5,1.4-0.6c3.7-1.7,10-3.5,17.1-2.8
			c11.4,1.2,19.7,8.6,19.2,9.6c-0.3,0.5-2.6-0.6-5.1-0.8c-5-0.4-12.6,3-23.2,20c6.1-4.7,12.5-9.3,21.2-12.4
			c-4.4,4.8-19.2,17.2-13.1,14.3c6.9-3.3,14.5-4.3,22.7-2.7l0,0C54.5,123,61.9,126.6,72,127.1z"/>
		<g id="lines_00000181085594856955213660000013926924307683436471_">
			<g>
				<path class="st3" d="M82.2,52.9c-0.7-6,1.2-12.2,5-16.8c0,0,0.1,0,0.1,0C84.5,41.3,83.1,47.4,82.2,52.9L82.2,52.9z"/>
				<path class="st3" d="M49.5,18.5c3.2,12,8.3,23.4,15,33.9c0,0-0.1,0.1-0.1,0.1C56.8,42.7,51.1,30.7,49.5,18.5L49.5,18.5z"/>
				<path class="st3" d="M96.4,67.8c-2.9,6.6-6.9,12.6-11.7,17.9c0,0-0.1-0.1-0.1-0.1C87.5,81.1,93.4,72.2,96.4,67.8
					C96.3,67.8,96.4,67.8,96.4,67.8L96.4,67.8z"/>
				<path class="st3" d="M38.6,83.6C46,87.7,53,92.9,59.1,98.8c0,0-0.1,0.1-0.1,0.1C54,95.1,43.3,87.5,38.6,83.6L38.6,83.6z"/>
				<path class="st3" d="M75,126.9c-12.1-9.9-25.2-10.2-39.6-5.6c-0.9,0.3-1.8,0.6-2.7,0.9l0-0.1C47.3,115.6,63.3,114.9,75,126.9
					L75,126.9z"/>
				<path class="st3" d="M103,120.3c-10.3-1.8-22.7-5.5-31.6,1.9c0,0-0.1-0.1-0.1-0.1C79.2,113.8,93.6,117.1,103,120.3L103,120.3z"
					/>
				<path class="st3" d="M51.9,55.9c3.2,2.4,5.8,5.4,8,8.7c0.6,1,1.5,2.4,2,3.4c0,0-0.1,0.1-0.1,0.1C59.3,65.1,54.3,59,51.9,55.9
					C51.8,56,51.9,55.9,51.9,55.9L51.9,55.9z"/>
			</g>
		</g>
	</g>
	<g>
		<path id="fill_00000147902068334252009190000002306522984711300523_" class="st4" d="M41.6,119.9L31,126.4l-12.4,4.9l-6.8,14
			l-7.1,10.5c-1.8,5-1.7,9.4,0,13.2L0.5,180l2.7,8.2c-3.9,5.6-3.4,11.2,0.6,16.9c-0.1,6.9,0.7,12.9,4.1,16.6l1.2,7.9
			c0,0,11.9,10.2,17.1,10.5c2.5,2.6,7.5,7.1,15.5,9.7c3.3,1,6.3,1.5,8.8,1.7c1.6,0.4,3.5,0.7,5.5,0.8c3.3,0.3,6.2,0.2,8.6-0.1
			c10.9,1.3,18.5,0.6,22.4-2.4c12,0.2,17.9-3.8,21-9.7l10.6-6.8c0.3-0.4,0.7-1.1,1.2-1.9c1.1-1.9,2.4-4.3,3.5-7.9
			c1.7-5.2,1.1-6.2,2.9-10.5c0.7-1.8,1.4-3.2,2-4.1c0.8-5.1,1.5-10.3,2.3-15.4c0,0,1.5-18.2-3.8-23.4c-1.8-4.8-3.5-9.4-5-13.4
			c0.2-5.9-1-10.4-4.1-13.4c0,0-3.1-8-8.6-12.6c-5.5-4.6-5.5-4.6-5.5-4.6c-9.8-3.3-16.1-3-20.1-2.1c-1.2,0.3-2.9,0.8-5.7,1.3
			c-5.1,0.8-9.4,0.8-12.2,0.7c-2.7-0.2-4.9-0.6-6.7-1c-3.6-0.8-5.7-1.3-8.1-2.6c-2-1.1-2.8-2-4.8-2.3
			C44.1,119.4,42.6,119.7,41.6,119.9z"/>
		<path id="leaves_00000035492958861855296060000006600617846244656514_" class="st4" d="M72,127.1c8.4,0.5,15-1.3,18.6-2.6
			c3.5-1,6.8-1.4,9.9-1.3c9.3,0.2,15.3,4.9,15.8,4.3c0.3-0.4-2.4-2.9-14.9-11.7c-0.1-0.2-0.2-0.4-0.1-0.5c0.9-2.4,9.5-3.6,23.6,1.9
			c-0.9-1.5-4.1-6.5-11.1-9.1c-7.4-2.8-16.5,0.2-16.7-0.2c0-0.1,0.1-0.1,0.1-0.1c10.7-14.1,42.7-21.2,45-18.3c0,0,0,0,0,0
			c0,0,0,0,0,0c-13.3-4.1-28.4-1.8-28.4-1.8c-11.9,4-19.2,5.4-19.6,3.4c-1-5.5,19.3-24.8,51.5-40.5c-5.6,0-13.5,0.6-22.4,3.2
			c-13,3.8-22,10-26.9,14.1c4.3-12.6,7.4-25.4,9.3-38.4c-0.2-3.2-0.1-8.3,2.6-13.8c1-2.1,2.2-3.9,3.3-5.3c-3.5,1.5-8.7,4.1-13.6,8.8
			c-7.1,6.7-9.9,13.9-11,17.7c0.4-2,0.7-4.5,0.5-7.4c-0.4-5-2-8.8-3.3-11.3c-2.2,3.7-4.5,7.9-6.5,12.7c-2.7,6.1-4.5,21.8-5.8,16.8
			c-2.8-11.2-8.5-19.8-15.9-26.7c-1-3-5.5-8.6-6.1-18.4c-2.1,5.3-4.3,12.8-4.8,21.9C44.3,38,56.6,60.2,51,55.5
			C34.8,41.8,23.9,37.9,13.9,35.6C25.4,45.3,37,53.3,42.3,61.6c6.8,10.6,7.2,12.8,9.2,13.9c-2.9-3.6-7.2-3.9-43.7-12.1
			c2.2,3.2,5.8,7.7,11.7,11.8c7.3,5.2,23.5,8,19,8.4c-13.7,1.4-27.9,12.4-27.5,12.9c0,0,1-0.5,1.4-0.6c3.7-1.7,10-3.5,17.1-2.8
			c11.4,1.2,19.7,8.6,19.2,9.6c-0.3,0.5-2.6-0.6-5.1-0.8c-5-0.4-12.6,3-23.2,20c6.1-4.7,12.5-9.3,21.2-12.4
			c-4.4,4.8-19.2,17.2-13.1,14.3c6.9-3.3,14.5-4.3,22.7-2.7l0,0C54.5,123,61.9,126.6,72,127.1z"/>
		<g id="lines_00000156545644668376208700000015484456843629689240_">
			<path class="st4" d="M82.3,52.9c0.2-2.2,0.6-4.7,1.3-7.4c1-3.7,2.3-6.9,3.6-9.4 M49.4,18.5c0.6,3.6,1.5,7.5,3,11.8
				c3.2,9.4,7.9,16.8,12,22.1 M96.4,67.8L84.7,85.6 M38.6,83.7l20.5,15.1 M75.1,126.9c-12.2-11.6-26.6-11.5-42.4-4.7 M103,120.3
				c-14.3-4.6-25.5-4.8-31.6,1.9 M51.9,56l10,12.1"/>
			<g>
				<path class="st4" d="M82.2,52.9c-0.7-6,1.2-12.2,5-16.8c0,0,0.1,0,0.1,0C84.5,41.3,83.1,47.4,82.2,52.9L82.2,52.9z"/>
				<path class="st4" d="M49.5,18.5c3.2,12,8.3,23.4,15,33.9c0,0-0.1,0.1-0.1,0.1C56.8,42.7,51.1,30.7,49.5,18.5L49.5,18.5z"/>
				<path class="st4" d="M96.4,67.8c-2.9,6.6-6.9,12.6-11.7,17.9c0,0-0.1-0.1-0.1-0.1C87.5,81.1,93.4,72.2,96.4,67.8
					C96.3,67.8,96.4,67.8,96.4,67.8L96.4,67.8z"/>
				<path class="st4" d="M38.6,83.6C46,87.7,53,92.9,59.1,98.8c0,0-0.1,0.1-0.1,0.1C54,95.1,43.3,87.5,38.6,83.6L38.6,83.6z"/>
				<path class="st4" d="M75,126.9c-12.1-9.9-25.2-10.2-39.6-5.6c-0.9,0.3-1.8,0.6-2.7,0.9l0-0.1C47.3,115.6,63.3,114.9,75,126.9
					L75,126.9z"/>
				<path class="st4" d="M103,120.3c-10.3-1.8-22.7-5.5-31.6,1.9c0,0-0.1-0.1-0.1-0.1C79.2,113.8,93.6,117.1,103,120.3L103,120.3z"
					/>
				<path class="st4" d="M51.9,55.9c3.2,2.4,5.8,5.4,8,8.7c0.6,1,1.5,2.4,2,3.4c0,0-0.1,0.1-0.1,0.1C59.3,65.1,54.3,59,51.9,55.9
					C51.8,56,51.9,55.9,51.9,55.9L51.9,55.9z"/>
			</g>
		</g>
	</g>
</g>
</svg>
